<?xml version="1.0" encoding="UTF-8"?>
<svg xmlns="http://www.w3.org/2000/svg" xmlns:xlink="http://www.w3.org/1999/xlink" width="13px" height="px" viewBox="0 0 13 13" version="1.1">
<g id="surface1">
<path style=" stroke:none;fill-rule:nonzero;fill:#fff;fill-opacity:1;" d="M 12.769531 2.007812 C 12.769531 1.523438 12.375 1.128906 11.890625 1.128906 L 10.40625 1.128906 L 10.40625 0.359375 C 10.40625 0.160156 10.246094 0 10.046875 0 L 9.273438 0 C 9.074219 0 8.914062 0.160156 8.914062 0.359375 L 8.914062 1.132812 L 3.980469 1.132812 L 3.980469 0.359375 C 3.980469 0.160156 3.820312 0 3.625 0 L 2.902344 0 C 2.703125 0 2.542969 0.160156 2.542969 0.359375 L 2.542969 1.132812 L 0.953125 1.132812 C 0.46875 1.132812 0.078125 1.523438 0.078125 2.007812 L 0.078125 5.140625 L 0.539062 5.140625 L 0.539062 11.941406 C 0.539062 12.441406 0.941406 12.847656 1.441406 12.847656 L 11.351562 12.847656 C 11.851562 12.847656 12.253906 12.441406 12.253906 11.941406 L 12.253906 5.136719 L 12.769531 5.136719 Z M 10.816406 10.453125 C 10.816406 10.953125 10.414062 11.355469 9.914062 11.355469 L 2.933594 11.355469 C 2.433594 11.355469 2.027344 10.953125 2.027344 10.453125 L 2.027344 5.136719 L 10.816406 5.136719 Z M 10.816406 10.453125 "/>
<path style=" stroke:none;fill-rule:nonzero;fill:#fff;fill-opacity:1;" d="M 3.261719 6.113281 L 4.699219 6.113281 L 4.699219 7.605469 L 3.261719 7.605469 Z M 3.261719 6.113281 "/>
<path style=" stroke:none;fill-rule:nonzero;fill:#fff;fill-opacity:1;" d="M 5.730469 6.113281 L 7.167969 6.113281 L 7.167969 7.605469 L 5.730469 7.605469 Z M 5.730469 6.113281 "/>
<path style=" stroke:none;fill-rule:nonzero;fill:#fff;fill-opacity:1;" d="M 8.195312 6.113281 L 9.632812 6.113281 L 9.632812 7.605469 L 8.195312 7.605469 Z M 8.195312 6.113281 "/>
<path style=" stroke:none;fill-rule:nonzero;fill:#fff;fill-opacity:1;" d="M 3.261719 8.734375 L 4.699219 8.734375 L 4.699219 10.226562 L 3.261719 10.226562 Z M 3.261719 8.734375 "/>
<path style=" stroke:none;fill-rule:nonzero;fill:#fff;fill-opacity:1;" d="M 5.730469 8.734375 L 7.167969 8.734375 L 7.167969 10.226562 L 5.730469 10.226562 Z M 5.730469 8.734375 "/>
<path style=" stroke:none;fill-rule:nonzero;fill:#fff;fill-opacity:1;" d="M 8.195312 8.734375 L 9.632812 8.734375 L 9.632812 10.226562 L 8.195312 10.226562 Z M 8.195312 8.734375 "/>
</g>
</svg>
