<?xml version="1.0" encoding="UTF-8"?>
<svg xmlns="http://www.w3.org/2000/svg" xmlns:xlink="http://www.w3.org/1999/xlink" width="13px" height="14px" viewBox="0 0 13 13" version="1.1">
<g id="surface1">
<path style=" stroke:none;fill-rule:nonzero;fill:#222933;fill-opacity:1;" d="M 6.5 6.941406 C 8.40625 6.941406 9.984375 5.421875 9.984375 3.488281 C 9.984375 1.550781 8.40625 0 6.5 0 C 4.589844 0 3.011719 1.519531 3.011719 3.457031 C 3.011719 5.394531 4.589844 6.941406 6.5 6.941406 Z M 6.5 1.082031 C 7.824219 1.082031 8.90625 2.160156 8.90625 3.460938 C 8.90625 4.761719 7.824219 5.835938 6.5 5.835938 C 5.171875 5.835938 4.09375 4.757812 4.09375 3.457031 C 4.09375 2.15625 5.171875 1.082031 6.5 1.082031 Z M 6.5 1.082031 "/>
<path style=" stroke:none;fill-rule:nonzero;fill:#222933;fill-opacity:1;" d="M 8.847656 7.273438 C 8.628906 7.21875 8.40625 7.273438 8.269531 7.441406 L 6.5 9.460938 L 4.730469 7.441406 C 4.589844 7.273438 4.34375 7.222656 4.148438 7.273438 C 1.632812 8.105469 0 10.148438 0 12.445312 C 0 12.75 0.25 13 0.554688 13 L 12.445312 13 C 12.75 13 13 12.75 13 12.445312 C 12.996094 10.148438 11.367188 8.105469 8.847656 7.273438 Z M 1.132812 11.917969 C 1.355469 10.398438 2.460938 9.097656 4.175781 8.4375 L 6.113281 10.648438 C 6.304688 10.898438 6.71875 10.898438 6.914062 10.648438 L 8.847656 8.4375 C 10.535156 9.097656 11.671875 10.425781 11.890625 11.917969 Z M 1.132812 11.917969 "/>
</g>
</svg>
